<?xml version="1.0" standalone="no"?>
<!DOCTYPE svg PUBLIC "-//W3C//DTD SVG 20010904//EN"
 "http://www.w3.org/TR/2001/REC-SVG-20010904/DTD/svg10.dtd">
<svg version="1.0" xmlns="http://www.w3.org/2000/svg"
 width="800.000000pt" height="800.000000pt" viewBox="0 0 800.000000 800.000000"
 preserveAspectRatio="xMidYMid meet">
<metadata>
Created by potrace 1.14, written by Peter Selinger 2001-2017
</metadata>
<g transform="translate(0.000000,800.000000) scale(0.100000,-0.100000)"
fill="#000000" stroke="none">
<path d="M3675 7989 c-949 -86 -1791 -469 -2459 -1119 -347 -338 -604 -692
-815 -1125 -381 -779 -494 -1674 -321 -2538 129 -643 416 -1244 844 -1764 195
-237 521 -537 777 -716 895 -623 1970 -856 3042 -658 867 161 1679 624 2261
1291 559 640 884 1383 978 2235 17 158 17 652 0 810 -93 842 -426 1609 -967
2225 -662 754 -1550 1222 -2555 1345 -158 20 -633 28 -785 14z m-268 -1703
c39 -19 89 -50 110 -70 22 -19 82 -62 134 -94 l94 -60 24 -111 24 -111 41 8
c23 4 84 7 136 6 95 0 96 0 190 -50 88 -46 319 -186 517 -313 l82 -53 236 46
c131 24 239 47 242 49 5 6 -47 111 -111 222 -30 53 -51 105 -61 155 -16 73
-22 95 -51 173 -19 52 -4 107 38 142 29 24 38 27 91 23 35 -3 62 -10 67 -18 5
-7 14 -42 20 -76 14 -73 2 -127 -32 -145 -11 -6 -48 -11 -81 -10 l-60 1 7 -47
c8 -60 52 -156 68 -151 7 3 13 12 13 20 0 38 88 101 132 96 37 -4 41 -33 10
-66 -36 -40 -47 -66 -47 -116 0 -59 22 -114 82 -205 26 -41 46 -76 44 -78 -5
-6 -498 -113 -518 -113 -10 0 -18 -2 -18 -5 0 -3 16 -44 35 -92 19 -48 34 -87
32 -88 -1 -1 -24 -9 -50 -18 l-48 -16 -38 83 c-21 46 -42 92 -45 104 -8 24
-73 81 -211 183 -146 109 -268 176 -443 246 l-63 26 -112 -18 c-137 -20 -352
-75 -592 -149 -205 -64 -246 -68 -271 -31 -22 33 -11 69 23 84 16 6 180 51
367 101 186 49 340 91 342 92 1 2 -2 50 -9 107 l-11 103 -56 28 c-30 15 -73
33 -96 40 -39 12 -42 11 -86 -22 -65 -50 -142 -80 -207 -81 -89 0 -141 36
-181 126 l-21 48 23 41 c35 64 78 88 157 88 55 0 79 -6 138 -34z m2316 -900
c166 -32 257 -121 257 -251 0 -180 -143 -444 -265 -491 -170 -65 -410 144
-599 521 -84 168 -86 157 31 183 90 20 181 36 258 45 77 10 251 6 318 -7z
m-1091 -32 c39 -30 53 -51 93 -145 26 -60 46 -111 44 -113 -2 -2 -11 -7 -20
-12 -14 -8 -4 -38 77 -227 l92 -219 -51 -23 c-225 -99 -663 -111 -1125 -30
-216 37 -547 135 -539 159 1 6 59 53 127 104 410 308 914 538 1186 541 66 1
74 -1 116 -35z m-2724 -63 c88 -29 322 -141 367 -175 19 -15 19 -15 -11 -16
-46 0 -129 -46 -173 -96 l-39 -45 -79 15 c-43 8 -148 24 -233 36 -179 24 -231
36 -282 61 -63 32 -60 75 14 155 101 110 241 131 436 65z m3041 -65 c22 -29
56 -86 75 -127 32 -71 63 -175 54 -184 -2 -3 -29 54 -59 125 -43 105 -58 130
-72 128 -14 -2 -25 11 -43 56 -28 70 -28 67 -10 60 8 -3 33 -29 55 -58z m97
-326 c53 -124 170 -398 260 -609 90 -211 164 -387 164 -391 0 -12 -163 -81
-171 -73 -8 8 -518 1207 -522 1227 -2 10 142 75 161 73 7 -1 56 -103 108 -227z
m-2579 164 c143 -29 332 -110 503 -214 l85 -52 99 21 c55 11 101 19 102 18 2
-1 -24 -24 -57 -51 -60 -48 -71 -66 -44 -66 27 0 16 -17 -44 -72 -105 -94
-216 -149 -375 -185 -138 -31 -522 -15 -631 27 -52 20 -85 266 -51 383 49 167
197 236 413 191z m-764 -78 l168 -25 57 -46 c31 -26 61 -54 68 -63 6 -10 14
-70 16 -137 5 -113 23 -190 56 -242 4 -7 57 -20 117 -30 l108 -18 40 -84 40
-85 -34 -26 c-19 -14 -52 -41 -73 -61 l-40 -36 30 -16 c16 -8 67 -27 114 -42
98 -32 96 -31 106 -69 7 -28 6 -29 -22 -22 -16 4 -94 35 -174 68 -80 33 -151
63 -158 65 -7 3 10 -29 37 -72 28 -43 49 -80 47 -82 -2 -2 -31 1 -65 8 l-61
13 -27 70 c-79 209 -173 366 -272 458 -200 186 -426 145 -687 -123 -105 -108
-185 -213 -267 -351 l-58 -97 -67 25 c-37 14 -71 29 -76 34 -18 18 213 416
347 595 182 246 414 433 522 421 22 -3 116 -16 208 -30z m1744 -422 l76 -17
-26 -19 c-15 -11 -39 -40 -54 -66 -36 -60 -44 -189 -18 -278 22 -79 96 -217
162 -305 30 -39 52 -74 49 -77 -3 -3 -81 1 -173 7 -174 13 -385 44 -545 82
l-93 22 85 17 c148 30 239 90 289 192 25 48 31 74 31 123 0 104 -66 204 -157
237 -40 15 -41 19 -5 40 15 9 51 38 80 65 l53 49 84 -27 c47 -15 120 -35 162
-45z m2213 40 c25 3 56 8 70 11 24 6 26 2 89 -185 35 -105 62 -192 60 -194 -8
-6 -181 -57 -184 -54 -6 7 -195 442 -195 449 0 4 26 -2 58 -13 40 -14 71 -18
102 -14z m-3878 -131 c64 -69 123 -161 179 -276 27 -56 49 -105 49 -109 0 -4
-22 15 -48 41 -275 275 -663 209 -836 -140 -29 -58 -53 -125 -64 -176 -15 -78
-18 -83 -42 -83 -51 0 -55 11 -41 96 66 393 362 689 692 693 l66 1 45 -47z
m1996 31 c277 -56 336 -196 178 -418 -44 -61 -228 -246 -246 -246 -15 0 -104
116 -150 196 -82 144 -121 307 -91 386 33 86 144 116 309 82z m1112 -17 c0
-16 -156 -430 -257 -682 -79 -197 -191 -445 -201 -445 -2 0 -29 23 -59 50 -30
28 -58 50 -62 50 -4 0 -25 -35 -47 -77 -55 -109 -113 -166 -200 -193 -59 -19
-91 -22 -219 -22 -82 1 -162 5 -177 9 l-27 8 42 52 c40 49 44 52 77 46 19 -4
73 -7 120 -6 134 0 261 58 345 155 51 60 101 168 127 269 23 95 19 132 -13
150 -41 21 -64 -2 -94 -92 -32 -101 -48 -132 -91 -186 -48 -58 -123 -93 -219
-100 l-76 -6 39 59 c47 72 152 260 152 274 0 13 2 13 -120 -5 -57 -9 -109 -15
-117 -13 -7 2 13 24 46 51 59 48 149 151 189 218 59 98 80 247 47 338 l-14 41
247 0 c261 0 382 10 484 40 69 20 78 21 78 17z m-1856 -57 c51 -25 82 -69 97
-139 50 -237 -150 -331 -529 -250 -111 24 -309 85 -317 99 -9 14 168 135 289
197 211 108 366 139 460 93z m-1323 -180 c78 -24 142 -62 200 -116 68 -64 100
-103 43 -54 -270 238 -610 117 -708 -250 -6 -22 -5 -21 10 5 26 48 96 116 139
136 27 12 63 19 111 19 59 0 81 -5 130 -30 70 -35 139 -103 189 -185 34 -57
72 -161 62 -171 -4 -4 -574 78 -746 108 l-63 10 5 47 c12 104 74 240 152 333
119 144 305 202 476 148z m3365 -51 c14 -16 20 -40 22 -98 3 -64 -3 -104 -42
-259 -61 -241 -142 -520 -217 -748 -61 -183 -61 -185 -105 -215 -67 -46 -180
-96 -269 -120 -97 -26 -266 -30 -370 -10 l-70 14 55 18 c67 23 99 40 168 91
51 38 59 50 156 246 114 233 238 510 347 777 66 161 79 185 124 231 87 88 163
115 201 73z m1130 6 c93 -17 208 -61 301 -117 74 -44 190 -153 251 -236 59
-79 142 -233 142 -263 0 -20 -4 -21 -112 -17 -85 4 -127 10 -170 27 -69 27
-184 102 -253 166 -87 80 -253 170 -370 200 -78 20 -226 19 -296 -1 -30 -9
-84 -31 -120 -49 l-66 -34 -26 59 -25 59 71 49 c215 148 432 199 673 157z
m-3925 -186 c428 -182 1056 -309 1532 -309 100 0 109 -1 102 -17 -9 -25 -91
-163 -114 -192 l-18 -24 -429 78 c-236 42 -520 94 -632 115 -224 42 -253 41
-298 -7 -32 -34 -32 -86 -1 -117 14 -14 46 -29 77 -35 153 -33 694 -134 890
-167 124 -20 228 -40 232 -44 4 -3 -11 -27 -35 -53 l-42 -48 -140 26 c-198 37
-601 127 -865 194 l-225 56 -6 165 c-6 177 -19 234 -77 344 -34 64 -35 66 -29
66 3 0 38 -14 78 -31z m-99 -84 c49 -7 47 -5 79 -95 7 -20 14 -110 17 -212 l4
-176 97 -24 c83 -21 96 -27 99 -46 3 -20 0 -22 -25 -15 -15 3 -77 18 -138 33
l-110 26 -7 124 c-7 134 -29 237 -72 334 -31 69 -31 69 -8 62 9 -3 38 -8 64
-11z m3818 -4 c136 -39 251 -105 385 -221 132 -114 237 -160 390 -169 l100 -6
27 -71 c69 -180 91 -451 53 -648 -67 -349 -271 -635 -550 -771 -121 -59 -188
-76 -326 -82 -190 -9 -345 34 -502 137 -230 150 -382 378 -459 685 -20 77 -23
116 -23 275 l1 185 41 88 c46 95 134 246 185 315 22 29 29 45 21 53 -18 18
-118 -129 -203 -299 -42 -84 -110 -249 -143 -345 -6 -15 -15 -16 -64 -11 -32
4 -59 8 -61 9 -6 5 84 230 134 334 96 202 244 422 268 402 7 -6 21 -8 32 -5
18 5 38 -38 203 -435 l183 -440 62 31 c33 17 62 31 63 32 2 2 -78 200 -177
441 -99 241 -180 439 -180 441 0 1 6 4 14 7 10 4 12 0 9 -14 -7 -26 12 -24 50
5 121 90 312 122 467 77z m-4683 -276 c344 -52 633 -95 641 -95 8 0 47 -32 87
-70 43 -42 86 -75 106 -80 149 -43 1065 -249 1373 -309 326 -64 502 -65 638
-4 64 28 134 96 167 161 25 49 38 59 57 40 12 -11 8 -23 -28 -78 -100 -153
-200 -219 -373 -245 -168 -25 -228 -21 -500 29 -289 52 -519 92 -1020 177
l-360 60 -86 -22 -86 -22 -144 22 c-217 33 -970 158 -1084 180 -89 17 -102 22
-126 51 -33 39 -53 108 -44 148 3 16 17 44 30 61 26 36 94 90 113 91 7 0 294
-43 639 -95z m1673 -100 c530 -95 679 -123 662 -124 -11 -1 -599 88 -1069 161
-47 7 -73 15 -73 24 0 15 19 24 40 19 8 -2 206 -38 440 -80z m713 -132 c-7 -2
-19 -2 -25 0 -7 3 -2 5 12 5 14 0 19 -2 13 -5z m-2628 -119 c12 -3 29 -27 45
-61 136 -313 438 -477 699 -381 124 46 237 152 297 279 16 32 35 59 43 59 20
0 255 -41 259 -45 2 -2 -12 -34 -32 -72 -201 -379 -584 -516 -934 -333 -160
83 -287 219 -377 405 -66 136 -71 155 -42 155 12 0 31 -3 42 -6z m151 -24 c32
-6 68 -13 80 -15 12 -3 33 -23 49 -46 42 -64 101 -125 159 -163 197 -131 431
-86 562 108 47 70 43 37 -6 -45 -79 -133 -201 -223 -338 -250 -127 -24 -288
28 -404 131 -56 50 -147 177 -181 253 -20 44 -19 44 79 27z m334 -55 c220 -34
214 -33 200 -50 -24 -29 -96 -47 -167 -43 -80 5 -144 33 -205 89 -38 35 -40
39 -18 34 14 -2 99 -16 190 -30z"/>
<path d="M3142 6215 c-7 -14 -12 -39 -12 -56 0 -26 6 -33 43 -49 52 -24 120
-24 207 -1 90 23 88 44 -5 53 -49 6 -91 18 -140 43 -38 19 -73 35 -76 35 -3 0
-11 -11 -17 -25z"/>
<path d="M5804 5271 c-122 -75 -243 -387 -205 -529 34 -125 139 -103 239 52
105 162 147 404 81 474 -25 27 -73 29 -115 3z m56 -111 c0 -5 -21 -31 -48 -57
-26 -27 -62 -76 -79 -109 -40 -74 -43 -55 -4 30 41 91 131 184 131 136z"/>
<path d="M4646 4894 c-166 -50 -242 -58 -526 -58 -210 0 -305 4 -459 22 -106
13 -195 21 -198 19 -5 -6 182 -52 287 -71 318 -57 717 -53 958 9 30 7 56 16
60 19 9 10 -18 86 -31 85 -7 -1 -48 -12 -91 -25z"/>
<path d="M2143 4815 c-13 -31 -23 -61 -23 -68 0 -18 192 -113 265 -132 136
-35 360 -14 560 53 76 25 85 30 54 31 -20 1 -105 -8 -190 -20 -94 -12 -171
-18 -199 -14 -73 11 -167 51 -306 130 -73 41 -133 75 -135 75 -2 0 -14 -25
-26 -55z"/>
<path d="M1500 4921 c-165 -53 -316 -181 -493 -416 -87 -116 -133 -185 -124
-185 2 0 33 39 69 88 79 106 233 254 313 302 32 19 88 45 124 57 200 68 409
-25 563 -249 21 -32 40 -58 41 -58 2 0 -3 55 -9 123 -7 67 -13 130 -13 140 -1
24 -92 119 -150 156 -95 60 -216 76 -321 42z"/>
<path d="M4941 4115 c-60 -54 -151 -246 -331 -695 -89 -223 -180 -446 -201
-497 -21 -51 -39 -97 -39 -102 0 -22 40 -7 209 77 l173 87 109 370 c137 464
169 591 176 685 5 63 3 79 -11 93 -25 25 -41 21 -85 -18z"/>
<path d="M5915 4133 c-80 -16 -155 -36 -152 -39 2 -2 37 4 78 12 103 22 286
22 368 0 197 -53 341 -173 509 -423 42 -62 75 -84 95 -64 16 16 -77 162 -162
253 -124 132 -272 222 -416 253 -64 13 -270 19 -320 8z"/>
<path d="M5737 3886 c-53 -16 -181 -75 -212 -99 -13 -10 -17 -19 -10 -25 7 -7
31 2 71 27 86 52 155 73 263 79 115 6 180 -7 286 -58 118 -57 237 -169 306
-290 l20 -35 -23 30 c-126 161 -265 246 -426 261 -83 7 -182 -14 -262 -57 -59
-31 -160 -114 -160 -130 0 -5 6 -25 14 -44 l15 -34 35 14 c57 24 135 29 199
12 201 -53 351 -263 364 -512 11 -207 -65 -371 -208 -450 -49 -27 -62 -30
-149 -30 -83 0 -103 4 -153 27 -70 33 -170 130 -214 208 -94 167 -108 380 -36
543 20 43 23 61 15 69 -9 9 -19 -5 -41 -53 -80 -177 -67 -371 40 -582 92 -181
167 -274 283 -349 161 -104 372 -106 530 -4 59 38 156 137 180 184 9 18 19 32
22 32 11 0 -61 -122 -105 -176 -99 -123 -228 -203 -374 -231 -324 -62 -650
189 -759 583 -30 111 -32 382 -4 494 25 97 65 194 109 262 23 37 32 60 26 69
-11 18 -25 -1 -83 -112 -74 -142 -98 -237 -103 -419 -4 -130 -2 -170 15 -246
43 -191 125 -349 246 -470 133 -133 279 -197 451 -198 68 0 119 6 160 18 287
86 498 368 533 716 43 430 -172 829 -516 958 -83 31 -266 40 -345 18z"/>
<path d="M675 3638 c-31 -17 -45 -39 -45 -72 0 -67 7 -73 73 -80 196 -19 880
-92 1101 -116 143 -16 262 -28 264 -26 6 7 -493 119 -1028 231 -173 36 -322
68 -330 70 -8 2 -24 -1 -35 -7z"/>
</g>
</svg>
